<svg height="449pt" viewBox="-3 0 449 449.16" width="449pt" xmlns="http://www.w3.org/2000/svg"><path d="m432.414062 206.5c-9.0625-2.527344-18.75-1.539062-27.117187 2.769531-8.460937 4.339844-18.257813 5.300781-27.398437 2.691407l-9.292969-2.660157-54.511719 120.820313-18.4375 15c6.433594 10.839844 22.101562 21.957031 35.523438 21.957031h74.878906c9.671875.007813 18.941406-3.847656 25.761718-10.707031 6.816407-6.855469 10.613282-16.152344 10.550782-25.820313v-121.25zm0 0" fill="#00acea"/><path d="m409.011719 88.699219v26.371093c-.972657-.082031-1.960938-.121093-2.953125-.121093h-74.878906c-.988282 0-1.980469.039062-2.949219.121093v-26.371093c0-7.4375 6.03125-13.46875 13.46875-13.46875h53.839843c7.441407 0 13.472657 6.03125 13.472657 13.46875zm0 0" fill="#00efd1"/><path d="m398.910156 0v45.230469h-60.582031v-45.230469zm0 0" fill="#00efd1"/><path d="m351.789062 45.230469h33.660157v30h-33.660157zm0 0" fill="#00acea"/><path d="m276.019531 103.75c5.160157 10.628906 2.273438 23.414062-6.957031 30.789062s-22.335938 7.375-31.566406 0c-9.226563-7.375-12.117188-20.160156-6.957032-30.789062l22.742188-36.039062zm0 0" fill="#00acea"/><path d="m60.359375 208.660156c7.066406-15.40625 22.460937-25.28125 39.410156-25.28125h102.230469c3.386719 0 6.128906 2.746094 6.128906 6.132813.003906 16.558593-13.417968 29.984375-29.980468 29.988281h31l.222656.269531-69.792969 56.902344c-12.988281 10.582031-18.710937 27.710937-14.699219 43.976563l-5.488281 5.113281-12.851563 10.476562-.128906-.160156c-14.523437-.164063-28.269531-6.582031-37.71875-17.609375h-39.710937c-15.960938 0-28.902344-12.9375-28.902344-28.898438v-52.011718c0-15.960938 12.941406-28.898438 28.902344-28.898438zm0 0" fill="#00acea"/><g fill="#00efd1"><path d="m164.398438 109.898438c11.121093-.003907 20.136718 9.007812 20.140624 20.125.003907 11.117187-9.007812 20.132812-20.125 20.136718-11.121093 0-20.132812-9.011718-20.132812-20.128906-.003906-11.117188 9.003906-20.128906 20.117188-20.132812zm0 0"/><path d="m90.398438 69.898438c11.121093-.003907 20.136718 9.007812 20.140624 20.125.003907 11.117187-9.007812 20.132812-20.125 20.136718-11.121093 0-20.132812-9.011718-20.132812-20.128906-.003906-11.117188 9.003906-20.128906 20.117188-20.132812zm0 0"/><path d="m109.890625 253.230469c-3.867187 0-7-3.132813-7-7 0-3.867188 3.132813-7 7-7 10.886719-.015625 19.710937-8.839844 19.71875-19.730469 0-3.867188 3.132813-7 7-7h36.121094c3.867187 0 7 3.132812 7 7s-3.132813 7-7 7h-29.851563c-3.324218 15.570312-17.066406 26.707031-32.988281 26.730469zm0 0"/><path d="m268.398438 422.898438c-7.25 0-13.128907 5.878906-13.128907 13.132812 0 7.25 5.878907 13.128906 13.128907 13.128906 7.253906 0 13.132812-5.878906 13.132812-13.128906-.007812-7.25-5.882812-13.125-13.132812-13.132812zm0 0"/><path d="m351.398438 416.898438c-7.25 0-13.128907 5.878906-13.128907 13.132812 0 7.25 5.878907 13.128906 13.128907 13.128906 7.253906 0 13.132812-5.878906 13.132812-13.128906-.007812-7.25-5.882812-13.125-13.132812-13.132812zm0 0"/></g><path d="m408.871094 115.136719c-.972656-.082031-1.816406-.058594-2.804688-.058594h-74.886718c-.988282 0-2.085938-.023437-3.054688.058594-19.015625 1.488281-33.703125 17.328125-33.753906 36.402343v15.539063l74 42.222656 9.425781 2.660157c9.191406 2.609374 19.027344 1.648437 27.542969-2.691407 8.34375-4.308593 18.011718-5.300781 27.058594-2.769531l9.972656 2.800781v-57.761719c.0625-19.023437-14.535156-34.886718-33.5-36.402343zm0 0" fill="#fedb41"/><path d="m368.621094 209.300781v120.820313h-54.519532l16.527344-13.480469c5.65625-4.609375 6.984375-12.714844 3.101563-18.890625-3.886719-6.175781-11.765625-8.484375-18.371094-5.378906l-.1875-.410156 19.589844-15.972657c6.160156-5.03125 7.097656-14.097656 2.089843-20.28125-5.003906-6.183593-14.066406-7.15625-20.273437-2.175781l11.121094-9.070312c4.03125-3.253907 6.015625-8.414063 5.199219-13.53125-.820313-5.113282-4.3125-9.402344-9.160157-11.234376-4.84375-1.832031-10.300781-.929687-14.296875 2.363282l-16.800781 13.703125c6.1875-5.042969 7.113281-14.148438 2.070313-20.332031-.042969-.050782-.085938-.101563-.132813-.148438v-47.832031h74.042969zm0 0" fill="#00efd1"/><path d="m336.828125 255.660156c-5.015625-6.15625-14.0625-7.109375-20.25-2.128906l11.121094-9.070312c4.03125-3.253907 6.015625-8.414063 5.199219-13.53125-.820313-5.113282-4.3125-9.402344-9.160157-11.234376-4.84375-1.832031-10.300781-.929687-14.296875 2.363282l-16.800781 13.703125c6.1875-5.042969 7.113281-14.148438 2.070313-20.332031-.042969-.050782-.085938-.101563-.132813-.148438-5.070313-6.058594-14.074219-6.914062-20.199219-1.921875l-50.558594 41.21875c12.269532-10.609375 13.875-29.058594 3.621094-41.628906-2.140625-2.625-6.003906-3.019531-8.632812-.878907l-9.4375 7.699219-69.792969 56.902344c-12.988281 10.582031-18.710937 27.710937-14.699219 43.976563l-5.488281 5.113281-12.851563 10.476562-5.847656 4.761719c-12.371094 10.085938-14.222656 28.289062-4.140625 40.660156l32.871094 40.308594c10.085937 12.367188 28.289063 14.21875 40.65625 4.132812l30.792969-25.101562.339844.101562c13.761718 2.195313 27.804687-1.59375 38.597656-10.410156l23.632812-19.269531 22.957032-18.722656 9.261718-7.550781 18.441406-15.027344 16.527344-13.480469c5.65625-4.609375 6.984375-12.714844 3.101563-18.890625-3.886719-6.175781-11.765625-8.484375-18.371094-5.378906l-.1875-.410156 19.589844-15.972657c6.183593-5.039062 7.109375-14.144531 2.066406-20.328125zm0 0" fill="#fedb41"/></svg>