<svg height="512" viewBox="0 0 512 512" width="512" xmlns="http://www.w3.org/2000/svg"><g id="Flat"><path d="m256 456h120v-224l40 40 24-24-184-184-184 184 24 24 40-40v224z" fill="#7bd7ef"/><g fill="#f77f7f"><path d="m431.5 296.72v16a8 8 0 0 0 16 0v-16a8 8 0 0 0 -2.06-15.72h-11.88a8 8 0 0 0 -2.06 15.72z"/><path d="m447.5 376.28v-16a8 8 0 0 0 -16 0v16a8 8 0 0 0 2.06 15.72h11.88a8 8 0 0 0 2.06-15.72z"/><path d="m399.72 344.5h16a8 8 0 0 0 0-16h-16a8 8 0 0 0 -15.72 2.06v11.88a8 8 0 0 0 15.72 2.06z"/><path d="m487 322.56a8 8 0 0 0 -7.72 5.94h-16a8 8 0 0 0 0 16h16a8 8 0 0 0 15.72-2.06v-11.88a8 8 0 0 0 -8-8z"/></g><circle cx="439.5" cy="336.5" fill="#fd918c" r="23.75"/><path d="m421.13 366.19 7.23-7.24a8 8 0 1 0 -11.31-11.31l-7.24 7.23-.28-.28a8 8 0 0 0 -11.31 11.32l11.87 11.87a8 8 0 1 0 11.32-11.31z" fill="#e22526"/><path d="m403.88 320.75a8 8 0 0 0 5.65-2.34l.28-.29 7.24 7.24a8 8 0 1 0 11.31-11.31l-7.23-7.24.28-.28a8 8 0 0 0 -11.32-11.32l-11.87 11.88a8 8 0 0 0 5.66 13.66z" fill="#e22526"/><path d="m457.88 306.81-7.24 7.24a8 8 0 0 0 11.36 11.31l7.24-7.24.28.29a8 8 0 0 0 11.32-11.32l-5.93-5.93-5.93-5.93a8 8 0 0 0 -11.32 11.32z" fill="#e22526"/><path d="m469.47 354.59-.28.28-7.19-7.23a8 8 0 1 0 -11.36 11.36l7.24 7.24-.29.28a8 8 0 0 0 11.32 11.31l11.88-11.87a8 8 0 0 0 -11.32-11.32z" fill="#e22526"/><path d="m64.5 399.72v16a8 8 0 0 0 16 0v-16a8 8 0 0 0 -2.06-15.72h-11.88a8 8 0 0 0 -2.06 15.72z" fill="#f77f7f"/><path d="m80.5 479.28v-16a8 8 0 0 0 -16 0v16a8 8 0 0 0 2.06 15.72h11.88a8 8 0 0 0 2.06-15.72z" fill="#f77f7f"/><path d="m32.72 447.5h16a8 8 0 0 0 0-16h-16a8 8 0 0 0 -15.72 2.06v11.88a8 8 0 0 0 15.72 2.06z" fill="#f77f7f"/><path d="m120 425.56a8 8 0 0 0 -7.72 5.94h-16a8 8 0 0 0 0 16h16a8 8 0 0 0 15.72-2.06v-11.88a8 8 0 0 0 -8-8z" fill="#f77f7f"/><circle cx="72.5" cy="439.5" fill="#fd918c" r="23.75"/><path d="m54.12 469.19 7.24-7.19a8 8 0 1 0 -11.31-11.31l-7.24 7.24-.28-.29a8 8 0 0 0 -11.32 11.32l11.88 11.88a8 8 0 0 0 11.32-11.32z" fill="#e22526"/><path d="m36.87 423.75a8 8 0 0 0 5.66-2.34l.28-.28 7.24 7.23a8 8 0 1 0 11.31-11.31l-7.24-7.24.29-.28a8 8 0 0 0 -11.32-11.31l-11.88 11.87a8 8 0 0 0 5.66 13.66z" fill="#e22526"/><path d="m90.87 409.81-7.23 7.24a8 8 0 1 0 11.36 11.31l7.24-7.23.28.28a8 8 0 1 0 11.31-11.32l-5.93-5.92-5.92-5.93a8 8 0 0 0 -11.32 11.31z" fill="#e22526"/><path d="m102.47 457.59-.28.29-7.19-7.24a8 8 0 1 0 -11.36 11.36l7.23 7.24-.28.28a8 8 0 0 0 11.32 11.32l11.87-11.88a8 8 0 0 0 -11.31-11.32z" fill="#e22526"/><circle cx="432" cy="472" fill="#f77f7f" r="16"/><circle cx="40" cy="304" fill="#f77f7f" r="16"/><circle cx="216" cy="40" fill="#f77f7f" r="16"/><circle cx="480" cy="264" fill="#e22526" r="8"/><circle cx="416" cy="424" fill="#e22526" r="8"/><circle cx="472" cy="440" fill="#e22526" r="8"/><circle cx="456" cy="208" fill="#f77f7f" r="8"/><circle cx="96" cy="336" fill="#e22526" r="8"/><circle cx="48" cy="216" fill="#e22526" r="8"/><circle cx="304" cy="56" fill="#e22526" r="8"/><path d="m232 336h-32a48 48 0 0 0 -48 48v8h208v-8a48 48 0 0 0 -48-48z" fill="#fd918c"/><path d="m232 320a16 16 0 0 1 -16 16h-16a65 65 0 0 0 112 0h-16a16 16 0 0 1 -16-16 24 24 0 0 0 24-24v-88h-96v88a24 24 0 0 0 24 24z" fill="#fac8b2"/><path d="m208 272h96a0 0 0 0 1 0 0v24a24 24 0 0 1 -24 24h-48a24 24 0 0 1 -24-24v-24a0 0 0 0 1 0 0z" fill="#efeeef"/><path d="m304 200a32 32 0 0 1 -32 32h-64v80l-21 .13a25.78 25.78 0 0 1 -18.38-7.55l-.31-.31a26.48 26.48 0 0 1 -2.49-34.64 62.36 62.36 0 0 0 12.1-30.55l2.26-26.28a76.17 76.17 0 0 1 44.94-63 76.12 76.12 0 0 1 61.84 0 76.17 76.17 0 0 1 44.94 63l2.26 26.28a62.36 62.36 0 0 0 12.1 30.55l.18.24a25.94 25.94 0 0 1 -2.3 34l-.28.28a26.55 26.55 0 0 1 -18.86 7.85h-21z" fill="#ffdb43"/><circle cx="232" cy="256" fill="#683b11" r="8"/><circle cx="280" cy="256" fill="#683b11" r="8"/><rect fill="#d1e1e5" height="96" rx="8" width="272" x="120" y="392"/><circle cx="256" cy="440" fill="#eceff0" r="16"/><path d="m352 168h24v40l40-40h64a8 8 0 0 0 8-8v-128a8 8 0 0 0 -8-8h-128a8 8 0 0 0 -8 8v128a8 8 0 0 0 8 8z" fill="#f98800"/><path d="m376 128h80a0 0 0 0 1 0 0v24a16 16 0 0 1 -16 16h-48a16 16 0 0 1 -16-16v-24a0 0 0 0 1 0 0z" fill="#ffdb43" transform="matrix(-1 0 0 -1 832 296)"/><circle cx="416" cy="96" fill="#ffdb43" r="32"/><path d="m416 115.31a19.22 19.22 0 0 1 -13.66-5.65 8 8 0 0 1 11.32-11.32 3.3 3.3 0 0 0 4.68 0 8 8 0 1 1 11.32 11.32 19.22 19.22 0 0 1 -13.66 5.65z" fill="#f98800"/><path d="m160 168h-24v40l-40-40h-64a8 8 0 0 1 -8-8v-128a8 8 0 0 1 8-8h128a8 8 0 0 1 8 8v128a8 8 0 0 1 -8 8z" fill="#ffdb43"/><path d="m72 128h48a16 16 0 0 1 16 16v24a0 0 0 0 1 0 0h-80a0 0 0 0 1 0 0v-24a16 16 0 0 1 16-16z" fill="#b71e71"/><circle cx="96" cy="96" fill="#b71e71" r="32"/><path d="m96 115.31a19.22 19.22 0 0 1 -13.66-5.65 8 8 0 0 1 11.32-11.32 3.3 3.3 0 0 0 4.68 0 8 8 0 0 1 11.32 11.32 19.22 19.22 0 0 1 -13.66 5.65z" fill="#ffdb43"/></g></svg>