<?xml version="1.0" encoding="utf-8"?>
<!-- Generator: Adobe Illustrator 23.0.1, SVG Export Plug-In . SVG Version: 6.00 Build 0)  -->
<svg version="1.1" id="Layer_1" xmlns="http://www.w3.org/2000/svg" xmlns:xlink="http://www.w3.org/1999/xlink" x="0px" y="0px"
	 viewBox="0 0 1095.5 667.8" style="enable-background:new 0 0 1095.5 667.8;" xml:space="preserve">
<style type="text/css">
	.st0{clip-path:url(#SVGID_2_);fill:#4687D9;}
	.st1{opacity:0.23;fill:#8EC1F4;}
	.st2{opacity:0.25;fill:#274C9A;}
	.st3{clip-path:url(#SVGID_6_);fill:#8EC1F4;}
	.st4{clip-path:url(#SVGID_10_);}
	.st5{fill:#274C9A;}
	.st6{fill:#224687;}
	.st7{fill:#3461B2;}
	.st8{clip-path:url(#SVGID_12_);}
	.st9{fill:#E2EDED;}
	.st10{fill:#213F85;}
	.st11{fill:#FFCF11;}
	.st12{fill:#32C8CC;}
	.st13{fill:#3CD4E1;}
	.st14{fill:#EAACB0;}
	.st15{fill:#EFBDC1;}
	.st16{fill:none;stroke:#231F20;stroke-miterlimit:10;}
	.st17{fill:#C5D1D1;}
	.st18{clip-path:url(#SVGID_14_);}
	.st19{fill:#12509B;}
	.st20{fill:#1B63C5;}
	.st21{clip-path:url(#SVGID_16_);}
	.st22{fill:#1F4087;}
	.st23{fill:#C49757;}
	.st24{clip-path:url(#SVGID_18_);}
	.st25{fill:#1A3468;}
	.st26{clip-path:url(#SVGID_20_);}
	.st27{fill:#54E9ED;}
	.st28{clip-path:url(#SVGID_22_);}
	.st29{fill:none;stroke:#10514F;stroke-miterlimit:10;}
	.st30{fill:#32C6C9;}
</style>
<g id="BACKGROUND">
</g>
<g id="OBJECTS">
	<g>
		<g>
			<defs>
				<path id="SVGID_1_" d="M35.1,667.8h1053.3c0,0,77.9-667.8-281.9-667.8C455.3,0,555.7,201.6,221,227.7
					C-119.6,254.2,35.1,667.8,35.1,667.8z"/>
			</defs>
			<clipPath id="SVGID_2_">
				<use xlink:href="#SVGID_1_"  style="overflow:visible;"/>
			</clipPath>
			<rect x="-52" y="-54.2" class="st0" width="1193.3" height="839.6"/>
		</g>
		<path class="st1" d="M706.7,307.5h-66.9c-7.7,0-14-6.3-14-14v-183c0-7.7,6.3-14,14-14h66.9c7.7,0,14,6.3,14,14v183
			C720.7,301.2,714.4,307.5,706.7,307.5z"/>
		<path class="st2" d="M805.2,149h-34.7c-9.6,0-17.4-7.8-17.4-17.4V69.3c0-9.6,7.8-17.4,17.4-17.4h34.7c9.6,0,17.4,7.8,17.4,17.4
			v62.2C822.6,141.1,814.8,149,805.2,149z"/>
		<g>
			<defs>
				<path id="SVGID_3_" d="M35.1,667.8h1053.3c0,0,77.9-667.8-281.9-667.8C455.3,0,555.7,201.6,221,227.7
					C-119.6,254.2,35.1,667.8,35.1,667.8z"/>
			</defs>
			<clipPath id="SVGID_4_">
				<use xlink:href="#SVGID_3_"  style="overflow:visible;"/>
			</clipPath>
		</g>
		<g>
			<defs>
				<path id="SVGID_5_" d="M35.1,667.8h1053.3c0,0,77.9-667.8-281.9-667.8C455.3,0,555.7,201.6,221,227.7
					C-119.6,254.2,35.1,667.8,35.1,667.8z"/>
			</defs>
			<clipPath id="SVGID_6_">
				<use xlink:href="#SVGID_5_"  style="overflow:visible;"/>
			</clipPath>
			<rect x="0.6" y="426.5" class="st3" width="1120.6" height="73.4"/>
		</g>
		<g>
			<defs>
				<path id="SVGID_7_" d="M35.1,667.8h1053.3c0,0,77.9-667.8-281.9-667.8C455.3,0,555.7,201.6,221,227.7
					C-119.6,254.2,35.1,667.8,35.1,667.8z"/>
			</defs>
			<clipPath id="SVGID_8_">
				<use xlink:href="#SVGID_7_"  style="overflow:visible;"/>
			</clipPath>
		</g>
		<g>
			<defs>
				<path id="SVGID_9_" d="M35.1,667.8h1053.3c0,0,77.9-667.8-281.9-667.8C455.3,0,555.7,201.6,221,227.7
					C-119.6,254.2,35.1,667.8,35.1,667.8z"/>
			</defs>
			<clipPath id="SVGID_10_">
				<use xlink:href="#SVGID_9_"  style="overflow:visible;"/>
			</clipPath>
			<g class="st4">
				<path class="st5" d="M1002.1,452.4h-378c-3.2,0-5.8,2.6-5.8,5.8v17.9c0,3.2,2.6,5.8,5.8,5.8h378c3.2,0,5.8-2.6,5.8-5.8v-17.9
					C1007.9,455,1005.3,452.4,1002.1,452.4z"/>
				<rect x="639.9" y="481.9" class="st6" width="336.5" height="199.6"/>
				<rect x="654.6" y="569.9" class="st7" width="307.2" height="102.9"/>
				<rect x="813" y="499.9" class="st7" width="148.7" height="61.6"/>
				<rect x="654.6" y="499.9" class="st7" width="138.4" height="61.6"/>
				<path class="st5" d="M908.9,549.4h-46.3c-1.6,0-2.9-1.3-2.9-2.9v-6.8c0-1.6,1.3-2.9,2.9-2.9h46.3c1.6,0,2.9,1.3,2.9,2.9v6.8
					C911.8,548.1,910.5,549.4,908.9,549.4z"/>
				<path class="st5" d="M746.9,549.4h-46.3c-1.6,0-2.9-1.3-2.9-2.9v-6.8c0-1.6,1.3-2.9,2.9-2.9h46.3c1.6,0,2.9,1.3,2.9,2.9v6.8
					C749.8,548.1,748.5,549.4,746.9,549.4z"/>
			</g>
		</g>
		<g>
			<defs>
				<path id="SVGID_11_" d="M35.1,667.8h1053.3c0,0,77.9-667.8-281.9-667.8C455.3,0,555.7,201.6,221,227.7
					C-119.6,254.2,35.1,667.8,35.1,667.8z"/>
			</defs>
			<clipPath id="SVGID_12_">
				<use xlink:href="#SVGID_11_"  style="overflow:visible;"/>
			</clipPath>
			<g class="st8">
				<polygon class="st9" points="680.8,524.8 699.3,657.8 502.4,657.8 510.5,528.3 				"/>
				<path class="st10" d="M605.7,181.9c0,11.3-10,20.5-22.4,20.5s-22.4-9.2-22.4-20.5s10-20.5,22.4-20.5S605.7,170.6,605.7,181.9z"
					/>
				<path class="st11" d="M593.7,190.3c0,10.7-9.4,19.3-21,19.3s-21-8.6-21-19.3s9.4-19.3,21-19.3S593.7,179.6,593.7,190.3z"/>
				<path class="st12" d="M513.2,295.7l-2.4,3.8c-9.5,15.1-15.4,32.1-17.6,49.8l-12.3,103.4l32.7,6.4l27.4-89.4L513.2,295.7z"/>
				<path class="st12" d="M496.5,429.4l-67.3,39.7l7.4,23.2c0,0,71.3-2.1,77.1-33.2L496.5,429.4z"/>
				<path class="st13" d="M513.2,295.7c0,0,66.5-34.6,128.9-19.4c0,0,14.4,75.3,6.9,120.7c0,0,30,67.1,48.4,186.5
					c0,0-64.3,49.8-197.7,12.7c0,0,9.9-166.8,29.2-195.6C529,400.6,511.3,327.5,513.2,295.7z"/>
				<path class="st9" d="M536.5,285.9L536.5,285.9C536.5,285.9,536.4,285.9,536.5,285.9l24.8,140.7l37.4-153.9
					C574.4,274.1,552.2,280.3,536.5,285.9z"/>
				<path class="st12" d="M598.7,272.5l-37.4,154.2l47.8-77.1l-10.3-22.2l32.3-35.2C630.9,292.1,630.7,273.5,598.7,272.5z"/>
				<polygon class="st12" points="536.4,286 561.2,426.7 536.4,370.2 541.1,354.1 522,319.1 				"/>
				<polygon class="st14" points="587.2,280.7 567.5,302.9 557.1,287.4 547.8,245.5 577.8,238.8 				"/>
				<path class="st15" d="M512.7,223.3c0,0,10.1,43.1,34.7,43.1c0,0,35.6-7.4,26.4-50.5C564.5,172.8,507.7,180.7,512.7,223.3z"/>
				<path class="st10" d="M519.6,205.9c0,0,29.8,21,55.5,18.8l8.1-7.1c0,0,10.2-35.8-15.4-42c-25.6-6.2-52.5-0.3-61.7,18.2
					c0,0-10.7,22.2,6.7,29.5C512.7,223.3,513.1,209.6,519.6,205.9z"/>
				<path class="st16" d="M535.3,235.8c0,0,0.9,9.3-2.8,12.3c0,0,2.8,2.9,11.7-3.2"/>
				<path class="st15" d="M570.9,224.7c0,0,7.4-18.2,13-12.7c5.6,5.6,1.8,29.9-11.3,32.8L570.9,224.7z"/>
				<path class="st16" d="M541.1,257.3c0,0,6.7,0,8.5-4"/>
				<polygon class="st17" points="585.3,270.4 567.5,302.9 581.5,312.3 598.7,272.5 				"/>
				<polygon class="st17" points="553.8,274.1 567.5,302.9 556.4,312.3 549.6,280.5 				"/>
			</g>
		</g>
		<g>
			<defs>
				<path id="SVGID_13_" d="M35.1,667.8h1053.3c0,0,77.9-667.8-281.9-667.8C455.3,0,555.7,201.6,221,227.7
					C-119.6,254.2,35.1,667.8,35.1,667.8z"/>
			</defs>
			<clipPath id="SVGID_14_">
				<use xlink:href="#SVGID_13_"  style="overflow:visible;"/>
			</clipPath>
			<g class="st18">
				
					<rect x="171.6" y="326" transform="matrix(0.9573 -0.2892 0.2892 0.9573 -94.6058 67.8881)" class="st19" width="21.7" height="56.2"/>
				
					<rect x="310.8" y="283.9" transform="matrix(0.9573 -0.2892 0.2892 0.9573 -76.4841 106.3426)" class="st19" width="21.7" height="56.2"/>
				<path class="st19" d="M468.8,600.3l-81.7-270.5c-4.2-14-19.1-22-33.1-17.8l-204.7,61.8c-14,4.2-22,19.1-17.8,33.1l81.7,270.6
					c4.2,14,19.1,22,33.1,17.8l204.8-61.8C465.1,629.2,473.1,614.4,468.8,600.3z"/>
				<path class="st20" d="M468.8,600.1L387.2,330c-4.3-14.2-19.2-22.2-33.4-17.9L178.6,365c-14.2,4.3-22.2,19.2-17.9,33.4
					l81.6,270.1c4.3,14.2,19.2,22.2,33.4,17.9l175.2-52.9C465,629.2,473,614.3,468.8,600.1z"/>
				<path class="st19" d="M367.4,264.7l-4.1-13.5c-4-13.1-17.8-20.5-30.9-16.6l-208,62.9c-13.1,4-20.5,17.8-16.6,30.9l4.1,13.5
					c4,13.1,17.8,20.5,30.9,16.6l208.1-62.9C364,291.7,371.4,277.8,367.4,264.7z"/>
				<path class="st20" d="M367.2,263.8l-3.6-11.8c-4.1-13.6-18.4-21.3-32-17.2l-177.3,53.6c-13.6,4.1-21.3,18.4-17.2,32l3.6,11.8
					c4.1,13.6,18.4,21.3,32,17.2L350,295.8C363.6,291.8,371.3,277.4,367.2,263.8z"/>
				<g>
					<path class="st20" d="M615.4,546.7H413.8c-10.1,0-18.3,8.2-18.3,18.3v32.5c0,12,11.4,20.8,23,17.7l45.3-11.9
						c26.2-6.9,53.2-10.3,80.3-10.2l118.4,0.5C662.5,567.8,641.4,546.7,615.4,546.7z"/>
					<path class="st19" d="M395.5,565v32.5c0,5.6,2.5,10.5,6.3,13.8l30.4-8c26.2-6.9,53.2-10.3,80.3-10.2l22.7,0.1
						c2.9-0.1,5.9-0.1,8.8-0.1l86.8,0.4c-0.1-25.9-21.1-46.9-47-46.9h-170C403.7,546.7,395.5,554.9,395.5,565z"/>
				</g>
				<rect x="571.9" y="593.3" class="st20" width="46.3" height="60.9"/>
				<rect x="571.9" y="593.3" class="st19" width="26.8" height="60.9"/>
			</g>
		</g>
		<g>
			<defs>
				<path id="SVGID_15_" d="M35.1,667.8h1053.3c0,0,77.9-667.8-281.9-667.8C455.3,0,555.7,201.6,221,227.7
					C-119.6,254.2,35.1,667.8,35.1,667.8z"/>
			</defs>
			<clipPath id="SVGID_16_">
				<use xlink:href="#SVGID_15_"  style="overflow:visible;"/>
			</clipPath>
			<g class="st21">
				<polygon class="st22" points="434,579 566,653.7 295.3,654.3 284.8,631 				"/>
				<path class="st15" d="M587.7,523.1c0,0,62.6,3,61.2,24.8c-1.3,21.8-24.7,20.8-30.9,14.8c-6.1-6-24.7,8.8-43.1-9.6
					C575,553.1,564.5,533.6,587.7,523.1z"/>
				<path class="st15" d="M350.9,342l11.9-1.1c17.5,4.3,54.6,54.6,61.9,71l35.6,101.8l-32.8,44.1L350.9,342z"/>
				<polygon class="st15" points="457.4,511.5 588.8,523.2 576.8,553.1 427.5,557.8 				"/>
				
					<rect x="248.7" y="314.1" transform="matrix(0.9453 -0.3261 0.3261 0.9453 -96.2142 106.7979)" class="st14" width="43.4" height="52.6"/>
				<path class="st15" d="M285.5,265.2c0,0,33.1,57-2.6,68.1c-35.7,11-45.6-7.9-49.3-39.1C229.8,263,269,242.9,285.5,265.2z"/>
				<path class="st11" d="M348,333.1c0,0-98.2,9.9-173.1,61c0,0,42.2,173.9,110,245.3c0,0,100.2-9.8,153.9-59.7
					C438.8,579.7,416.3,376.4,348,333.1z"/>
				<path class="st10" d="M286.6,256.5c0,0-14.4,51.9-47.6,61.8c0,0,8.8,12.3,8.8,20.6c0,0-41.9-21.5-28.1-58.8
					C233.6,242.7,279.6,246.8,286.6,256.5z"/>
				<path class="st16" d="M283.1,292c0,0,3.5,7.3,9.3,6.9c0,0-1.8,6.4-5,6.3"/>
				<path class="st16" d="M280,318.1c0,0,6.4,2.8,11.7,0.4"/>
				<path class="st23" d="M311.2,339.3c-20.5,4.4-47.4,11.5-75.4,22.8c6.2,15.2,26.9,22,47,15C301.7,370.6,313.6,354.4,311.2,339.3z
					"/>
				<path class="st14" d="M306.1,340.5c-18.5,4.1-41.4,10.4-65.4,19.7c5.3,13.3,23.3,19.1,40.8,13.1
					C297.9,367.6,308.1,353.5,306.1,340.5z"/>
				<g>
					<path class="st20" d="M401.2,613.5H199.6c-10.1,0-18.3,8.2-18.3,18.3v32.4c0,12,11.4,20.8,23,17.7l45.3-11.9
						c26.2-6.9,53.2-10.3,80.3-10.2l118.4,0.5C448.2,634.6,427.2,613.5,401.2,613.5z"/>
					<path class="st19" d="M181.2,631.9v32.4c0,5.6,2.5,10.5,6.3,13.8l30.4-8c26.2-6.9,53.2-10.3,80.3-10.2l22.7,0.1
						c2.9-0.1,5.9-0.1,8.8-0.1l86.8,0.4c-0.1-25.9-21.1-46.9-47-46.9H199.6C189.4,613.5,181.2,621.7,181.2,631.9z"/>
				</g>
				<path class="st15" d="M174.8,409.7l55.4-7.5l19.4,189.5l-39.7,23.1c-6.2,3.6-14.2-0.4-14.9-7.6L174.8,409.7z"/>
				<polygon class="st15" points="230.2,572.9 367.5,595.5 353,627 202.2,616.1 				"/>
				<path class="st15" d="M367.5,595.5c0,0,59.6,1.8,59.3,23.6s-23.7,21.9-30.1,16.2c-6.4-5.7-27.9,10.5-43.6-8.3
					C353,627,344.8,607.1,367.5,595.5z"/>
				<path class="st11" d="M174.8,394.1c0,0-13.2,67.7-16.8,103.1c0,0,52,13,90.8-5.1l-14.1-91.2C234.7,401,194.6,384.3,174.8,394.1z
					"/>
				<path class="st11" d="M348,333.1l11.6-1.8h0.7c9.9,0,19.2,4.6,25.2,12.5c16.3,21.6,41.6,62.5,48.5,82c0,0-19.8,18.8-51,22.3
					C383.1,448.1,344,362.3,348,333.1z"/>
				<path class="st15" d="M249,316.9c0,0-7.2-10.2-16.5-5.6c-9.3,4.7,6.5,21.3,17.2,21L249,316.9z"/>
			</g>
		</g>
		<g>
			<defs>
				<path id="SVGID_17_" d="M35.1,667.8h1053.3c0,0,77.9-667.8-281.9-667.8C455.3,0,555.7,201.6,221,227.7
					C-119.6,254.2,35.1,667.8,35.1,667.8z"/>
			</defs>
			<clipPath id="SVGID_18_">
				<use xlink:href="#SVGID_17_"  style="overflow:visible;"/>
			</clipPath>
			<g class="st24">
				<g>
					<path class="st10" d="M511.4,500.2c-5.5,0-11.4-1.2-17.7-3.5c-61.7-23.1-84.3-63.1-96.4-84.5c-4.2-7.4-7.8-13.9-10.2-13.7
						l-0.3-4.3c5-0.3,8.5,5.8,14.2,15.9c11.8,21,33.9,60.1,94.1,82.6c13.8,5.1,25.3,4.1,34.3-3c40.2-32,22.2-173.4,22-174.8l4.3-0.6
						c0.8,5.9,18.5,145.3-23.6,178.8C526.2,497.8,519.2,500.2,511.4,500.2z"/>
				</g>
				<path class="st10" d="M580.7,234.3h-3.4V225h3.4c1.7,0,3.1,1.4,3.1,3.1v3.1C583.8,232.9,582.4,234.3,580.7,234.3z"/>
				<g>
					<path class="st10" d="M551.3,316.7l-0.4-0.2c-1.2-0.5-28.7-19.8-29.6-71l3.5,6.3c2.9,44.2,23.9,58.9,27.3,60.4
						c9.2-0.6,16.6-4.3,21.9-11.1c16.9-21.3,4.6-67.7,4.5-68.2l4.3-0.8c0.3,1.9,12.8,48.8-5.4,71.6c-6.3,7.9-14.9,12.2-25.6,12.8
						L551.3,316.7z"/>
				</g>
				<path class="st25" d="M550.1,309.2h7.3c2.9,0,4.6,3.4,2.7,5.7l-5.3,6.6c-0.7,0.8-1.7,1.3-2.7,1.3l0,0c-1.5,0-2.9-1-3.3-2.4
					l-2.1-6.6C546,311.5,547.7,309.2,550.1,309.2z"/>
				<path class="st9" d="M395.4,406.3c0,10.8-8.7,19.5-19.5,19.5s-19.5-8.7-19.5-19.5s8.7-19.5,19.5-19.5
					C386.6,386.8,395.4,395.6,395.4,406.3z"/>
				<circle class="st10" cx="375.8" cy="406.3" r="13"/>
			</g>
		</g>
		<g>
			<defs>
				<path id="SVGID_19_" d="M35.1,667.8h1053.3c0,0,77.9-667.8-281.9-667.8C455.3,0,555.7,201.6,221,227.7
					C-119.6,254.2,35.1,667.8,35.1,667.8z"/>
			</defs>
			<clipPath id="SVGID_20_">
				<use xlink:href="#SVGID_19_"  style="overflow:visible;"/>
			</clipPath>
			<g class="st26">
				<path class="st27" d="M630.9,274.1l-66.3,142.2l26.2,24.8L660,331.6c7.5-11.9,8.6-27,2.1-39.5
					C657.3,282.7,648.1,274.5,630.9,274.1z"/>
				<path class="st27" d="M571.9,406.6L431,380v26.6c0,0,102.2,49.1,159.9,34.6L571.9,406.6z"/>
				<path class="st15" d="M431,380c0,0-33.8-0.2-47.8-5.5c0,0-25.9,27.1-3.6,48.2c0,0,2.3,2.4,10.2-7.4c0,0,21.2,7.6,41.2-8.7
					L431,380L431,380z"/>
			</g>
		</g>
		<g>
			<defs>
				<path id="SVGID_21_" d="M35.1,667.8h1053.3c0,0,77.9-667.8-281.9-667.8C455.3,0,555.7,201.6,221,227.7
					C-119.6,254.2,35.1,667.8,35.1,667.8z"/>
			</defs>
			<clipPath id="SVGID_22_">
				<use xlink:href="#SVGID_21_"  style="overflow:visible;"/>
			</clipPath>
			<g class="st28">
				<g>
					<path class="st29" d="M940.6,257.7c0,0-37.4,29.6-45.7,98.5"/>
					<path class="st30" d="M941.9,292.7c0,0-28.3-3.3-39.1,26.8C902.8,319.5,933.8,315.2,941.9,292.7z"/>
					<path class="st30" d="M909.1,246c0,0,11.4,30,3.5,49.4C912.6,295.4,893.4,277,909.1,246z"/>
					<path class="st11" d="M945.8,245.9c0,1.1-0.9,1.9-1.9,1.9c-1.1,0-1.9-0.9-1.9-1.9c0-1.1,0.9-1.9,1.9-1.9
						S945.8,244.9,945.8,245.9z"/>
					<path class="st11" d="M949.5,261.4c0,2.1-1.7,3.7-3.7,3.7s-3.7-1.7-3.7-3.7c0-2.1,1.7-3.7,3.7-3.7S949.5,259.4,949.5,261.4z"/>
					<path class="st11" d="M939.9,274.7c0,2.1-1.7,3.9-3.9,3.9s-3.9-1.7-3.9-3.9c0-2.1,1.7-3.9,3.9-3.9S939.9,272.6,939.9,274.7z"/>
					<path class="st11" d="M936,255.1c0,1.4-1.2,2.6-2.6,2.6s-2.6-1.2-2.6-2.6s1.2-2.6,2.6-2.6C934.9,252.5,936,253.7,936,255.1z"/>
					<path class="st11" d="M929.8,263c0,2.1-1.7,3.7-3.7,3.7c-2.1,0-3.7-1.7-3.7-3.7c0-2.1,1.7-3.7,3.7-3.7S929.8,261,929.8,263z"/>
					<path class="st11" d="M958.8,243.6c0,1.3-1.1,2.4-2.4,2.4s-2.4-1.1-2.4-2.4s1.1-2.4,2.4-2.4
						C957.7,241.1,958.8,242.2,958.8,243.6z"/>
				</g>
				<g>
					<path class="st29" d="M813,194.7c0,0,62.8,64.9,60.2,161.5"/>
					<path class="st13" d="M859.7,207.2c0,0-8.8,47.2,8.6,96.6C868.3,303.8,885.2,250.1,859.7,207.2z"/>
					<path class="st13" d="M819.6,267.9c0,0,45.9,6.8,49.8,40.9C869.4,308.9,833.1,301.5,819.6,267.9z"/>
					<path class="st11" d="M811.6,181.1c0,1.5-1.3,2.8-2.8,2.8s-2.8-1.3-2.8-2.8s1.3-2.8,2.8-2.8
						C810.3,178.3,811.6,179.5,811.6,181.1z"/>
					<path class="st11" d="M827.6,190.6c0,2.2-1.8,4-4,4s-4-1.8-4-4s1.8-4,4-4S827.6,188.4,827.6,190.6z"/>
					<path class="st11" d="M810,194.7c0,1.5-1.2,2.7-2.7,2.7s-2.7-1.2-2.7-2.7s1.2-2.7,2.7-2.7S810,193.2,810,194.7z"/>
					<path class="st11" d="M816.9,209.9c0,1.5-1.2,2.7-2.7,2.7s-2.7-1.2-2.7-2.7s1.2-2.7,2.7-2.7
						C815.7,207.2,816.9,208.4,816.9,209.9z"/>
					<path class="st11" d="M823.6,227.7c0,2.9-2.4,5.3-5.3,5.3c-2.9,0-5.3-2.4-5.3-5.3s2.4-5.3,5.3-5.3
						C821.2,222.4,823.6,224.8,823.6,227.7z"/>
					<path class="st11" d="M835.3,205.2c0,1.1-0.9,2-2,2s-2-0.9-2-2s0.9-2,2-2S835.3,204.1,835.3,205.2z"/>
					<path class="st11" d="M845.8,220.1c0,1.3-1.1,2.4-2.4,2.4c-1.3,0-2.4-1.1-2.4-2.4s1.1-2.4,2.4-2.4S845.8,218.8,845.8,220.1z"/>
				</g>
				<g>
					<path class="st29" d="M906.6,197.5c0,0-29.5,74.3-22.1,158.7"/>
					<path class="st13" d="M917.4,251.4c0,0-33.8,7.6-33,46.7C884.4,298,914.5,285.7,917.4,251.4z"/>
					<path class="st13" d="M884.4,212.6c0,0,12.4,24.4,2.8,62.9C887.2,275.4,872.8,253.7,884.4,212.6z"/>
					<path class="st11" d="M915.6,172.2c0,1.3-1.1,2.4-2.4,2.4s-2.4-1.1-2.4-2.4s1.1-2.4,2.4-2.4
						C914.5,169.8,915.6,170.9,915.6,172.2z"/>
					<path class="st11" d="M900.9,182.7c0,2.5-2,4.5-4.5,4.5s-4.5-2-4.5-4.5s2-4.5,4.5-4.5C898.9,178.3,900.9,180.3,900.9,182.7z"/>
					<circle class="st11" cx="922.3" cy="202.3" r="4.9"/>
					<path class="st11" d="M916.2,218.9c0,1.9-1.6,3.5-3.5,3.5s-3.5-1.6-3.5-3.5s1.6-3.5,3.5-3.5S916.2,216.9,916.2,218.9z"/>
					<path class="st11" d="M897.8,208.1c0,1.6-1.3,2.9-2.9,2.9s-2.9-1.3-2.9-2.9s1.3-2.9,2.9-2.9S897.8,206.5,897.8,208.1z"/>
					<path class="st11" d="M921.3,187.8c0,1.6-1.3,2.8-2.8,2.8s-2.8-1.3-2.8-2.8c0-1.6,1.3-2.8,2.8-2.8S921.3,186.2,921.3,187.8z"/>
				</g>
				<path class="st9" d="M930.9,416.7c0.1-7.7-2.7-16.7-10.2-26.9c0,0-26.8-29.6-11.6-59.8h-3h-20.3h-2.7h-20.3h-3
					c15.2,30.2-11.6,59.8-11.6,59.8c-7.5,10.2-10.3,19.2-10.2,26.9c-0.4,17.9,13.1,33,28,35.7c0.6,0.3,1,0.4,1,0.4h3.8h27.3h3.8
					c0,0,0.4-0.2,1-0.4C917.8,449.7,931.3,434.6,930.9,416.7z"/>
			</g>
		</g>
		<g>
			<defs>
				<path id="SVGID_23_" d="M35.1,667.8h1053.3c0,0,77.9-667.8-281.9-667.8C455.3,0,555.7,201.6,221,227.7
					C-119.6,254.2,35.1,667.8,35.1,667.8z"/>
			</defs>
			<clipPath id="SVGID_24_">
				<use xlink:href="#SVGID_23_"  style="overflow:visible;"/>
			</clipPath>
		</g>
		<g>
			<defs>
				<path id="SVGID_25_" d="M35.1,667.8h1053.3c0,0,77.9-667.8-281.9-667.8C455.3,0,555.7,201.6,221,227.7
					C-119.6,254.2,35.1,667.8,35.1,667.8z"/>
			</defs>
			<clipPath id="SVGID_26_">
				<use xlink:href="#SVGID_25_"  style="overflow:visible;"/>
			</clipPath>
		</g>
		<g>
			<defs>
				<path id="SVGID_27_" d="M35.1,667.8h1053.3c0,0,77.9-667.8-281.9-667.8C455.3,0,555.7,201.6,221,227.7
					C-119.6,254.2,35.1,667.8,35.1,667.8z"/>
			</defs>
			<clipPath id="SVGID_28_">
				<use xlink:href="#SVGID_27_"  style="overflow:visible;"/>
			</clipPath>
		</g>
		<g>
			<defs>
				<path id="SVGID_29_" d="M35.1,667.8h1053.3c0,0,77.9-667.8-281.9-667.8C455.3,0,555.7,201.6,221,227.7
					C-119.6,254.2,35.1,667.8,35.1,667.8z"/>
			</defs>
			<clipPath id="SVGID_30_">
				<use xlink:href="#SVGID_29_"  style="overflow:visible;"/>
			</clipPath>
		</g>
		<g>
			<defs>
				<path id="SVGID_31_" d="M35.1,667.8h1053.3c0,0,77.9-667.8-281.9-667.8C455.3,0,555.7,201.6,221,227.7
					C-119.6,254.2,35.1,667.8,35.1,667.8z"/>
			</defs>
			<clipPath id="SVGID_32_">
				<use xlink:href="#SVGID_31_"  style="overflow:visible;"/>
			</clipPath>
		</g>
		<g>
			<defs>
				<path id="SVGID_33_" d="M35.1,667.8h1053.3c0,0,77.9-667.8-281.9-667.8C455.3,0,555.7,201.6,221,227.7
					C-119.6,254.2,35.1,667.8,35.1,667.8z"/>
			</defs>
			<clipPath id="SVGID_34_">
				<use xlink:href="#SVGID_33_"  style="overflow:visible;"/>
			</clipPath>
		</g>
		<g>
			<defs>
				<path id="SVGID_35_" d="M35.1,667.8h1053.3c0,0,77.9-667.8-281.9-667.8C455.3,0,555.7,201.6,221,227.7
					C-119.6,254.2,35.1,667.8,35.1,667.8z"/>
			</defs>
			<clipPath id="SVGID_36_">
				<use xlink:href="#SVGID_35_"  style="overflow:visible;"/>
			</clipPath>
		</g>
		<g>
			<defs>
				<path id="SVGID_37_" d="M35.1,667.8h1053.3c0,0,77.9-667.8-281.9-667.8C455.3,0,555.7,201.6,221,227.7
					C-119.6,254.2,35.1,667.8,35.1,667.8z"/>
			</defs>
			<clipPath id="SVGID_38_">
				<use xlink:href="#SVGID_37_"  style="overflow:visible;"/>
			</clipPath>
		</g>
	</g>
</g>
</svg>
