<svg height="512" viewBox="0 0 64 64" width="512" xmlns="http://www.w3.org/2000/svg"><g id="Layer_1" data-name="Layer 1"><path d="m39 40-3-7 9-6-2.43-3.65-1.57-2.35-5 2 1-6h-6l5-6v-10l-7 2v4l-6 3-3 7-3 2-2 8 2.76 3.1 5.24 5.9-2 7 5 2 5-5 1 8 2 4-3 8 4 3 5-8v-8l-2-3z" fill="#3bb03c"/><path d="m38 44 2 3v8l-5 8-4-3 3-8-2-4-1-8-5 5-3.15-1.26.83-1.83 1.32-2.91 4.83-.6 1.93-.24 1.24-.16v-6l7.79-7.71 1.78-.94 2.43 3.65-9 6 3 7z" fill="#229122"/><path d="m36 1v8.06l-6.54 6.66-4.46.28v11l-5.3 2.27-1.94.83-2.76-3.1 2-8 3-2 3-7 6-3v-4z" fill="#bbd036"/><g fill="#229122"><path d="m21 24h4v2h-4z"/><path d="m27 30h-1a1 1 0 0 1 0-2h1a1 1 0 0 1 0 2z"/><path d="m31 30h-1a1 1 0 0 1 0-2h1a1 1 0 0 1 0 2z"/></g></g></svg>